<?xml version="1.0" encoding="UTF-8"?><svg xmlns="http://www.w3.org/2000/svg" viewBox="0 0 25.23 23.18"><defs><style>.d{fill:#381e1e;}</style></defs><g id="a"/><g id="b"><g id="c"><g><polygon class="d" points="9.43 10.77 10.95 10.77 10.22 8.48 9.43 10.77"/><path class="d" d="M12.61,0C5.65,0,0,4.46,0,9.97c0,3.58,2.39,6.73,5.98,8.48-.26,.98-.96,3.57-1.09,4.12-.17,.69,.25,.68,.53,.49,.22-.14,3.46-2.35,4.85-3.3,.76,.11,1.54,.17,2.34,.17,6.97,0,12.61-4.46,12.61-9.97S19.58,0,12.61,0ZM6.45,12.68c0,.61-1.36,.58-1.37-.03,0-.84,0-4.5,0-4.5h-1.32c-.77,0-.77-1.35,0-1.35h4c.82,0,.82,1.39,0,1.38-.87,0-1.31,.1-1.31,.1v4.4Zm5.18,.18c-.32-.84-.24-.88-.24-.88h-2.41l-.26,.92c-.28,.64-1.49,.12-1.21-.53,.39-.89,1.56-4.26,1.88-4.97,.13-.28,.43-.4,.74-.4,.37,0,.76,.17,.87,.4,.23,.5,1.51,4.01,1.88,4.98,.26,.68-.99,1.16-1.25,.47Zm4.93,.3c-.62,0-2.01,0-2.64,0s-.52-.73-.52-.73c0,0,0-3.68,0-4.83,0-.4,.36-.6,.71-.6s.71,.2,.71,.6c0,.83,0,4.24,0,4.24,0,0,1.13,0,1.74,0s.62,1.31,0,1.31Zm4.3-.1l-1.73-2.36-.4,.32s0,1.17,0,1.78c0,.53-1.35,.53-1.35,0,0-.34,.03-4.87,.02-5.37,0-.28,.35-.42,.69-.42,.32,0,.64,.12,.65,.38,.02,.68,0,1.91,0,1.91,0,0,1.96-1.96,2.23-2.23,.29-.29,1.18,.61,.89,.9-.49,.49-1.74,1.84-1.74,1.84l1.84,2.42c.35,.46-.75,1.3-1.1,.83Z"/></g></g></g></svg>